<svg xmlns="http://www.w3.org/2000/svg" width="1200" height="630" viewBox="0 0 1200 630">
  <!-- Background -->
  <rect width="1200" height="630" fill="#1a1a1a"/>
  <!-- Brand accent bar -->
  <rect x="0" y="0" width="8" height="630" fill="#d44211"/>
  <!-- Main title -->
  <text x="100" y="250" font-family="sans-serif" font-size="80" fill="#fafaf7" font-weight="bold">한라산출장바베큐</text>
  <!-- Subtitle -->
  <text x="100" y="340" font-family="sans-serif" font-size="36" fill="#d44211">제주 출장 바베큐 케이터링</text>
  <!-- Domain -->
  <text x="100" y="410" font-family="sans-serif" font-size="24" fill="#737373">한라산출장바베큐.kr</text>
  <!-- Flame icon (bottom-right) -->
  <g transform="translate(1090, 510)">
    <path d="M50 90 C50 90 20 70 20 45 C20 25 35 10 50 0 C50 0 45 20 55 30 C60 20 65 10 70 0 C80 15 80 35 70 50 C75 45 80 42 85 45 C85 65 65 80 50 90Z" fill="#d44211" opacity="0.9"/>
    <path d="M50 80 C50 80 35 68 35 52 C35 40 42 30 50 22 C50 22 47 35 53 42 C57 35 60 28 63 22 C70 32 70 46 62 56 C66 52 70 50 73 52 C73 65 62 75 50 80Z" fill="#ff6b35" opacity="0.8"/>
  </g>
</svg>
